<svg width="263" height="42" viewBox="0 0 263 42" fill="none" xmlns="http://www.w3.org/2000/svg">
<g filter="url(#filter0_d)">
<path d="M8.52539 3.24805V19.5078C8.52539 20.5977 8.68359 21.5469 9 22.3555C9.31641 23.1523 9.73828 23.8145 10.2656 24.3418C10.793 24.8574 11.3965 25.2441 12.0762 25.502C12.7559 25.7598 13.4648 25.8887 14.2031 25.8887C14.9531 25.8887 15.6562 25.7598 16.3125 25.502C16.9688 25.2324 17.5371 24.8398 18.0176 24.3242C18.5098 23.8086 18.8965 23.1641 19.1777 22.3906C19.459 21.6055 19.5996 20.6914 19.5996 19.6484V3.24805H23.9414V19.209C23.9414 20.5215 23.7246 21.7871 23.291 23.0059C22.8574 24.2246 22.2012 25.3086 21.3223 26.2578C20.4434 27.1953 19.3359 27.9453 18 28.5078C16.6758 29.0703 15.1113 29.3516 13.3066 29.3516C11.7832 29.3516 10.4004 29.1348 9.1582 28.7012C7.91602 28.2676 6.85547 27.6289 5.97656 26.7852C5.09766 25.9414 4.41797 24.8984 3.9375 23.6562C3.46875 22.4141 3.23438 20.9844 3.23438 19.3672V3.24805H8.52539ZM25.4355 35.2051C26.4785 34.5254 27.334 33.8281 28.002 33.1133C28.6699 32.4102 29.1914 31.6484 29.5664 30.8281C29.9531 30.0195 30.2168 29.1348 30.3574 28.1738C30.498 27.2129 30.5684 26.1465 30.5684 24.9746V3.24805H35.8594V23.6211C35.8594 25.2734 35.7012 26.7969 35.3848 28.1914C35.0801 29.5742 34.5703 30.8398 33.8555 31.9883C33.1523 33.1367 32.2266 34.168 31.0781 35.082C29.9414 35.9961 28.5469 36.8047 26.8945 37.5078L25.4355 35.2051ZM37.5293 35.2051C38.5723 34.5254 39.4277 33.8281 40.0957 33.1133C40.7637 32.4102 41.2852 31.6484 41.6602 30.8281C42.0469 30.0195 42.3105 29.1348 42.4512 28.1738C42.5918 27.2129 42.6621 26.1465 42.6621 24.9746V3.24805H47.9531V23.6211C47.9531 25.2734 47.7949 26.7969 47.4785 28.1914C47.1738 29.5742 46.6641 30.8398 45.9492 31.9883C45.2461 33.1367 44.3203 34.168 43.1719 35.082C42.0352 35.9961 40.6406 36.8047 38.9883 37.5078L37.5293 35.2051ZM73.8809 5.14648L77.959 21.3359L78.7148 25.0449H79.0488L79.7695 21.3359L83.918 3.24805H88.4531L81.6855 29H75.3926L71.6133 14.6035L70.7695 10.3145H70.418L69.5742 14.6035L65.7949 29H59.4141L52.6289 3.24805H58.1484L62.332 21.3359L63 25.0449H63.334L64.1074 21.3359L68.1855 5.14648H73.8809ZM105.662 22.6895H96.1348L94.2188 29H89.666L98.332 3.24805H104.537L113.186 29H107.613L105.662 22.6895ZM104.695 19.4199L101.988 10.4199L101.074 6.64062H100.723L99.8086 10.4199L97.084 19.4199H104.695ZM117.668 29V3.24805H122.959V25.5371H132.943L132.311 29H117.668ZM151.928 25.8887C152.561 25.8887 153.152 25.8125 153.703 25.6602C154.266 25.5078 154.752 25.2852 155.162 24.9922C155.584 24.6875 155.912 24.3184 156.146 23.8848C156.393 23.4395 156.516 22.9297 156.516 22.3555C156.516 21.6641 156.346 21.0781 156.006 20.5977C155.666 20.1055 155.221 19.6777 154.67 19.3145C154.119 18.9512 153.486 18.623 152.771 18.3301C152.068 18.0371 151.342 17.7324 150.592 17.416C149.854 17.0996 149.127 16.7539 148.412 16.3789C147.709 15.9922 147.082 15.5352 146.531 15.0078C145.98 14.4688 145.535 13.8301 145.195 13.0918C144.855 12.3418 144.686 11.4512 144.686 10.4199C144.686 9.25977 144.908 8.2168 145.354 7.29102C145.799 6.36523 146.426 5.58008 147.234 4.93555C148.043 4.2793 149.016 3.77539 150.152 3.42383C151.289 3.07227 152.555 2.89648 153.949 2.89648C154.336 2.89648 154.787 2.91406 155.303 2.94922C155.83 2.97266 156.387 3.02539 156.973 3.10742C157.57 3.17773 158.186 3.27734 158.818 3.40625C159.463 3.52344 160.102 3.66992 160.734 3.8457L159.926 7.625L159.609 7.7832C159.023 7.52539 158.443 7.30859 157.869 7.13281C157.307 6.94531 156.768 6.79297 156.252 6.67578C155.736 6.55859 155.25 6.47656 154.793 6.42969C154.348 6.38281 153.955 6.35938 153.615 6.35938C153.018 6.35938 152.473 6.42969 151.98 6.57031C151.488 6.71094 151.066 6.91602 150.715 7.18555C150.363 7.44336 150.094 7.77148 149.906 8.16992C149.719 8.55664 149.625 9.00195 149.625 9.50586C149.625 10.1973 149.795 10.7891 150.135 11.2812C150.475 11.7617 150.92 12.1895 151.471 12.5645C152.033 12.9395 152.672 13.2793 153.387 13.584C154.102 13.8887 154.828 14.1992 155.566 14.5156C156.305 14.832 157.031 15.1777 157.746 15.5527C158.461 15.9277 159.094 16.3789 159.645 16.9062C160.207 17.4336 160.658 18.0547 160.998 18.7695C161.338 19.4844 161.508 20.3398 161.508 21.3359C161.508 22.4727 161.273 23.5332 160.805 24.5176C160.348 25.4902 159.691 26.334 158.836 27.0488C157.98 27.7637 156.949 28.3262 155.742 28.7363C154.535 29.1465 153.188 29.3516 151.699 29.3516C151.113 29.3516 150.492 29.3164 149.836 29.2461C149.191 29.1758 148.523 29.0703 147.832 28.9297C147.152 28.7891 146.467 28.6133 145.775 28.4023C145.084 28.1914 144.416 27.9453 143.771 27.6641L144.562 23.8848L144.932 23.709C146.221 24.3652 147.434 24.8926 148.57 25.291C149.719 25.6895 150.838 25.8887 151.928 25.8887ZM172.143 29H166.852V3.24805H172.143V29ZM178.893 29V3.24805H186.17L195.943 18.4883L197.807 22.0918H198.158L197.947 18.0312V3.24805H202.271V29H196.998L185.08 10.4902L183.357 7.02734H183.006L183.217 10.9121V29H178.893ZM230.133 27.6113C228.457 28.2441 226.869 28.6953 225.369 28.9648C223.881 29.2227 222.445 29.3516 221.062 29.3516C218.906 29.3516 217.002 29.0586 215.35 28.4727C213.697 27.8867 212.309 27.0547 211.184 25.9766C210.059 24.8984 209.209 23.6035 208.635 22.0918C208.061 20.5684 207.773 18.875 207.773 17.0117C207.773 15.5 207.955 14.0996 208.318 12.8105C208.693 11.5215 209.209 10.3555 209.865 9.3125C210.533 8.25781 211.324 7.33203 212.238 6.53516C213.164 5.73828 214.172 5.07031 215.262 4.53125C216.363 3.99219 217.529 3.58789 218.76 3.31836C219.99 3.03711 221.25 2.89648 222.539 2.89648C222.961 2.89648 223.441 2.91406 223.98 2.94922C224.52 2.98438 225.088 3.03711 225.686 3.10742C226.283 3.17773 226.893 3.27734 227.514 3.40625C228.146 3.52344 228.768 3.66992 229.377 3.8457L228.586 7.60742L228.234 7.76562C227.074 7.22656 225.967 6.85742 224.912 6.6582C223.857 6.45898 222.943 6.35938 222.17 6.35938C220.811 6.35938 219.58 6.59375 218.479 7.0625C217.389 7.53125 216.451 8.19336 215.666 9.04883C214.893 9.89258 214.295 10.9121 213.873 12.1074C213.451 13.291 213.24 14.5977 213.24 16.0273C213.24 17.3867 213.434 18.6641 213.82 19.8594C214.207 21.0547 214.77 22.1035 215.508 23.0059C216.246 23.8965 217.143 24.5996 218.197 25.1152C219.264 25.6309 220.471 25.8887 221.818 25.8887C222.334 25.8887 222.926 25.8477 223.594 25.7656C224.262 25.6836 224.883 25.5488 225.457 25.3613V16.4316H230.133V27.6113ZM236.707 29V3.24805H241.998V13.918H253.723V3.24805H259.014V29H253.723V17.3809H241.998V29H236.707Z" fill="#101010"/>
</g>
<defs>
<filter id="filter0_d" x="0.234375" y="0.896484" width="261.779" height="40.6113" filterUnits="userSpaceOnUse" color-interpolation-filters="sRGB">
<feFlood flood-opacity="0" result="BackgroundImageFix"/>
<feColorMatrix in="SourceAlpha" type="matrix" values="0 0 0 0 0 0 0 0 0 0 0 0 0 0 0 0 0 0 127 0"/>
<feOffset dy="1"/>
<feGaussianBlur stdDeviation="1.5"/>
<feColorMatrix type="matrix" values="0 0 0 0 0 0 0 0 0 0 0 0 0 0 0 0 0 0 0.25 0"/>
<feBlend mode="normal" in2="BackgroundImageFix" result="effect1_dropShadow"/>
<feBlend mode="normal" in="SourceGraphic" in2="effect1_dropShadow" result="shape"/>
</filter>
</defs>
</svg>
